<?xml version="1.0" encoding="utf-8"?>
<!-- Generator: Adobe Illustrator 19.0.0, SVG Export Plug-In . SVG Version: 6.00 Build 0)  -->
<svg version="1.1" xmlns="http://www.w3.org/2000/svg" xmlns:xlink="http://www.w3.org/1999/xlink" x="0px" y="0px"
	 viewBox="0 0 300 200" style="enable-background:new 0 0 300 200;" xml:space="preserve">
<style type="text/css">
	.st0{fill:#F47056;}
	.st1{fill:#FEA872;}
</style>
<g id="Layer_1">
	<g id="XMLID_2_">
		<path id="XMLID_29_" class="st0" d="M14.5,15.5v92c0,1.7,1.4,3.1,3.1,3.1h92c1.7,0,3.1-1.4,3.1-3.1v-92c0-1.7-1.4-3.1-3.1-3.1h-92
			C15.9,12.5,14.5,13.8,14.5,15.5z M55.9,55.4L27.8,67.5c-1.7,0.7-3.6-0.2-4.1-1.9l0-0.1c-0.5-1.5,0.3-3.1,1.8-3.7l18.2-7.5
			c2.5-1,2.5-4.6,0-5.7l-18.1-7.4c-1.4-0.6-2.2-2.2-1.8-3.6l0,0c0.5-1.8,2.5-2.7,4.2-2l28.1,12.1c1.1,0.5,1.9,1.6,1.9,2.8v2.1
			C57.8,53.8,57.1,54.9,55.9,55.4z M101.9,88.2H65.5c-1.7,0-3.1-1.4-3.1-3.1V85c0-1.7,1.4-3.1,3.1-3.1h36.4c1.7,0,3.1,1.4,3.1,3.1
			v0.1C104.9,86.8,103.5,88.2,101.9,88.2z"/>
		<path id="XMLID_31_" class="st1" d="M281.5,32.6H135.3c-2.2,0-4-1.8-4-4v-13c0-2.2,1.8-4,4-4h146.2c2.2,0,4,1.8,4,4v13
			C285.5,30.8,283.7,32.6,281.5,32.6z"/>
		<path id="XMLID_32_" class="st1" d="M281.5,71.5H135.3c-2.2,0-4-1.8-4-4v-13c0-2.2,1.8-4,4-4h146.2c2.2,0,4,1.8,4,4v13
			C285.5,69.7,283.7,71.5,281.5,71.5z"/>
		<path id="XMLID_33_" class="st1" d="M281.5,110.5H135.3c-2.2,0-4-1.8-4-4v-13c0-2.2,1.8-4,4-4h146.2c2.2,0,4,1.8,4,4v13
			C285.5,108.7,283.7,110.5,281.5,110.5z"/>
		<path id="XMLID_34_" class="st1" d="M281.5,149.4h-263c-2.2,0-4-1.8-4-4v-13c0-2.2,1.8-4,4-4h263c2.2,0,4,1.8,4,4v13
			C285.5,147.6,283.7,149.4,281.5,149.4z"/>
		<path id="XMLID_44_" class="st1" d="M281.5,188.3h-263c-2.2,0-4-1.8-4-4v-13c0-2.2,1.8-4,4-4h263c2.2,0,4,1.8,4,4v13
			C285.5,186.5,283.7,188.3,281.5,188.3z"/>
	</g>
</g>
<g id="Layer_2">
</g>
</svg>
